<?xml version="1.0" encoding="UTF-8" standalone="no"?>
<!DOCTYPE svg PUBLIC "-//W3C//DTD SVG 1.1//EN"
 "http://www.w3.org/Graphics/SVG/1.1/DTD/svg11.dtd">
<!-- Generated by graphviz version 2.26.3 (20100126.1600)
 -->
<!-- Title: _anonymous_0 Pages: 1 -->
<svg width="382pt" height="332pt"
 viewBox="0.00 0.00 382.00 332.00" xmlns="http://www.w3.org/2000/svg" xmlns:xlink="http://www.w3.org/1999/xlink">
<g id="graph1" class="graph" transform="scale(1 1) rotate(0) translate(4 328)">
<title>_anonymous_0</title>
<polygon fill="white" stroke="white" points="-4,5 -4,-328 379,-328 379,5 -4,5"/>
<!-- trialsurf -->
<g id="node1" class="node"><title>trialsurf</title>
<polygon fill="none" stroke="black" points="70,-180 2.84217e-14,-180 0,-144 70,-144 70,-180"/>
<text text-anchor="middle" x="35" y="-158.4" font-family="Times Roman,serif" font-size="14.00">trialsurf</text>
</g>
<!-- honeycollection -->
<g id="node3" class="node"><title>honeycollection</title>
<polygon fill="none" stroke="black" points="135,-108 11,-108 11,-72 135,-72 135,-108"/>
<text text-anchor="middle" x="73" y="-86.4" font-family="Times Roman,serif" font-size="14.00">honeycollection</text>
</g>
<!-- trialsurf&#45;&gt;honeycollection -->
<g id="edge2" class="edge"><title>trialsurf&#45;&gt;honeycollection</title>
<path fill="none" stroke="black" stroke-width="2" d="M44.589,-143.831C48.8317,-135.792 53.9121,-126.167 58.596,-117.292"/>
<polygon fill="black" stroke="black" points="61.7096,-118.891 63.2819,-108.413 55.5189,-115.623 61.7096,-118.891"/>
</g>
<!-- nectarODE -->
<g id="node15" class="node"><title>nectarODE</title>
<polygon fill="none" stroke="black" points="164,-36 72,-36 72,-1.77636e-14 164,-3.55271e-15 164,-36"/>
<text text-anchor="middle" x="118" y="-14.4" font-family="Times Roman,serif" font-size="14.00">nectarODE</text>
</g>
<!-- honeycollection&#45;&gt;nectarODE -->
<g id="edge14" class="edge"><title>honeycollection&#45;&gt;nectarODE</title>
<path fill="none" stroke="black" stroke-width="2" d="M84.3554,-71.8314C89.4326,-63.7079 95.5227,-53.9637 101.118,-45.0118"/>
<polygon fill="black" stroke="black" points="104.16,-46.7483 106.492,-36.4133 98.2237,-43.0383 104.16,-46.7483"/>
</g>
<!-- simulator -->
<g id="node4" class="node"><title>simulator</title>
<polygon fill="none" stroke="black" points="177,-324 97,-324 97,-288 177,-288 177,-324"/>
<text text-anchor="middle" x="137" y="-302.4" font-family="Times Roman,serif" font-size="14.00">simulator</text>
</g>
<!-- simulator&#45;&gt;trialsurf -->
<g id="edge8" class="edge"><title>simulator&#45;&gt;trialsurf</title>
<path fill="none" stroke="black" stroke-width="2" d="M96.8947,-292.632C77.6782,-284.095 56.2326,-270.993 44,-252 32.2886,-233.817 30.574,-209.147 31.4893,-190.235"/>
<polygon fill="black" stroke="black" points="34.9895,-190.362 32.2487,-180.128 28.0092,-189.837 34.9895,-190.362"/>
</g>
<!-- timplot -->
<g id="node6" class="node"><title>timplot</title>
<polygon fill="none" stroke="black" points="117,-252 53,-252 53,-216 117,-216 117,-252"/>
<text text-anchor="middle" x="85" y="-230.4" font-family="Times Roman,serif" font-size="14.00">timplot</text>
</g>
<!-- simulator&#45;&gt;timplot -->
<g id="edge4" class="edge"><title>simulator&#45;&gt;timplot</title>
<path fill="none" stroke="black" stroke-width="2" d="M123.878,-287.831C117.95,-279.623 110.827,-269.761 104.307,-260.732"/>
<polygon fill="black" stroke="black" points="106.991,-258.471 98.2985,-252.413 101.316,-262.569 106.991,-258.471"/>
</g>
<!-- hive_summer -->
<g id="node8" class="node"><title>hive_summer</title>
<polygon fill="none" stroke="black" points="243,-252 135,-252 135,-216 243,-216 243,-252"/>
<text text-anchor="middle" x="189" y="-230.4" font-family="Times Roman,serif" font-size="14.00">hive_summer</text>
</g>
<!-- simulator&#45;&gt;hive_summer -->
<g id="edge6" class="edge"><title>simulator&#45;&gt;hive_summer</title>
<path fill="none" stroke="black" stroke-width="2" d="M150.122,-287.831C156.05,-279.623 163.173,-269.761 169.693,-260.732"/>
<polygon fill="black" stroke="black" points="172.684,-262.569 175.702,-252.413 167.009,-258.471 172.684,-262.569"/>
</g>
<!-- hive_winter -->
<g id="node11" class="node"><title>hive_winter</title>
<polygon fill="none" stroke="black" points="359,-252 261,-252 261,-216 359,-216 359,-252"/>
<text text-anchor="middle" x="310" y="-230.4" font-family="Times Roman,serif" font-size="14.00">hive_winter</text>
</g>
<!-- simulator&#45;&gt;hive_winter -->
<g id="edge10" class="edge"><title>simulator&#45;&gt;hive_winter</title>
<path fill="none" stroke="black" stroke-width="2" d="M177.125,-289.301C200.949,-279.385 231.438,-266.696 257.2,-255.974"/>
<polygon fill="black" stroke="black" points="258.569,-259.196 266.456,-252.122 255.879,-252.733 258.569,-259.196"/>
</g>
<!-- one_field_day -->
<g id="node17" class="node"><title>one_field_day</title>
<polygon fill="none" stroke="black" points="218,-180 108,-180 108,-144 218,-144 218,-180"/>
<text text-anchor="middle" x="163" y="-158.4" font-family="Times Roman,serif" font-size="14.00">one_field_day</text>
</g>
<!-- hive_summer&#45;&gt;one_field_day -->
<g id="edge16" class="edge"><title>hive_summer&#45;&gt;one_field_day</title>
<path fill="none" stroke="black" stroke-width="2" d="M182.439,-215.831C179.597,-207.962 176.206,-198.571 173.058,-189.853"/>
<polygon fill="black" stroke="black" points="176.338,-188.63 169.649,-180.413 169.754,-191.008 176.338,-188.63"/>
</g>
<!-- one_winter_day -->
<g id="node13" class="node"><title>one_winter_day</title>
<polygon fill="none" stroke="black" points="374,-180 246,-180 246,-144 374,-144 374,-180"/>
<text text-anchor="middle" x="310" y="-158.4" font-family="Times Roman,serif" font-size="14.00">one_winter_day</text>
</g>
<!-- hive_winter&#45;&gt;one_winter_day -->
<g id="edge12" class="edge"><title>hive_winter&#45;&gt;one_winter_day</title>
<path fill="none" stroke="black" stroke-width="2" d="M310,-215.831C310,-208.131 310,-198.974 310,-190.417"/>
<polygon fill="black" stroke="black" points="313.5,-190.413 310,-180.413 306.5,-190.413 313.5,-190.413"/>
</g>
<!-- one_field_day&#45;&gt;honeycollection -->
<g id="edge20" class="edge"><title>one_field_day&#45;&gt;honeycollection</title>
<path fill="none" stroke="black" stroke-width="2" d="M140.289,-143.831C129.204,-134.963 115.705,-124.164 103.715,-114.572"/>
<polygon fill="black" stroke="black" points="105.699,-111.677 95.7035,-108.163 101.326,-117.143 105.699,-111.677"/>
</g>
<!-- one_field_day&#45;&gt;nectarODE -->
<g id="edge18" class="edge"><title>one_field_day&#45;&gt;nectarODE</title>
<path fill="none" stroke="black" stroke-width="2" d="M160.465,-143.727C157.602,-125.295 152.241,-96.1857 144,-72 140.928,-62.9835 136.728,-53.5101 132.6,-45.0596"/>
<polygon fill="black" stroke="black" points="135.671,-43.3758 128.034,-36.0323 129.424,-46.5354 135.671,-43.3758"/>
</g>
</g>
</svg>
